<svg xmlns:xlink="http://www.w3.org/1999/xlink" width="40" height="40" viewBox="0 0 40 40" fill="none" xmlns="http://www.w3.org/2000/svg"><g clip-path="url(#clip0_575_13601)" fill="none"><g filter="url(#filter0_d_575_13601)" fill="none"><path d="M5.85967 34.1397C3.94947 32.2947 2.42582 30.0878 1.37764 27.6478C0.329462 25.2077 -0.222262 22.5833 -0.245339 19.9277C-0.268415 17.2721 0.237619 14.6385 1.24324 12.1806C2.24885 9.72266 3.73392 7.48962 5.61177 5.61177C7.48962 3.73392 9.72266 2.24885 12.1806 1.24324C14.6385 0.237619 17.2721 -0.268415 19.9277 -0.245339C22.5833 -0.222262 25.2077 0.329462 27.6478 1.37764C30.0878 2.42582 32.2947 3.94947 34.1397 5.85967C37.7828 9.63171 39.7987 14.6838 39.7532 19.9277C39.7076 25.1716 37.6042 30.1879 33.896 33.896C30.1879 37.6042 25.1716 39.7076 19.9277 39.7532C14.6838 39.7987 9.63171 37.7828 5.85967 34.1397ZM22.7997 19.9997L28.4597 14.3397L25.6397 11.5197L19.9997 17.1797L14.3397 11.5197L11.5197 14.3397L17.1797 19.9997L11.5197 25.6597L14.3397 28.4797L19.9997 22.8197L25.6597 28.4797L28.4797 25.6597L22.8197 19.9997H22.7997Z" fill="#2B8EF3"></path></g></g><defs><filter id="filter0_d_575_13601" x="-20.2461" y="-20.2461" width="80" height="80" filterUnits="userSpaceOnUse" color-interpolation-filters="sRGB"><feFlood flood-opacity="0" result="BackgroundImageFix"></feFlood><feColorMatrix in="SourceAlpha" type="matrix" values="0 0 0 0 0 0 0 0 0 0 0 0 0 0 0 0 0 0 127 0" result="hardAlpha"></feColorMatrix><feOffset></feOffset><feGaussianBlur stdDeviation="10"></feGaussianBlur><feComposite in2="hardAlpha" operator="out"></feComposite><feColorMatrix type="matrix" values="0 0 0 0 0 0 0 0 0 0 0 0 0 0 0 0 0 0 0.25 0"></feColorMatrix><feBlend mode="normal" in2="BackgroundImageFix" result="effect1_dropShadow_575_13601"></feBlend><feBlend mode="normal" in="SourceGraphic" in2="effect1_dropShadow_575_13601" result="shape"></feBlend></filter><clipPath id="clip0_575_13601"><rect width="40" height="40" fill="white"></rect></clipPath></defs></svg>