<svg xmlns:xlink="http://www.w3.org/1999/xlink" width="800" height="800" viewBox="0 0 24 24" xmlns="http://www.w3.org/2000/svg" fill="#000000"><g id="SVGRepo_bgCarrier" stroke-width="0px"></g><g id="SVGRepo_tracerCarrier" stroke-linecap="round" stroke-linejoin="round"></g><g id="SVGRepo_iconCarrier"><defs><style>.cls-1{fill:#ffffff;}.cls-2{fill:#ffffff;}.cls-3{fill:#ffffff;}</style></defs><title>Icon_24px_CloudAPIs_Color</title><g data-name="Product Icons"><path class="cls-1" d="M16.49,12,12,16.49,7.51,12,12,7.51ZM12,14.91,14.91,12,12,9.09,9.09,12Z" fill="#FFFFFF"></path><polygon class="cls-2" points="16.33 15.02 18.98 15.02 22 12 19.35 12 16.33 15.02" fill="#FFFFFF"></polygon><polygon class="cls-3" points="16.33 8.98 19.35 12 22 12 18.98 8.98 16.33 8.98" fill="#FFFFFF"></polygon><polygon class="cls-3" points="7.67 8.98 5.02 8.98 2 12 4.65 12 7.67 8.98" fill="#FFFFFF"></polygon><polygon class="cls-2" points="2 12 5.02 15.02 7.67 15.02 4.65 12 2 12" fill="#FFFFFF"></polygon><polygon class="cls-3" points="8.98 5.02 8.98 7.67 12 4.65 12 2 8.98 5.02" fill="#FFFFFF"></polygon><polygon class="cls-2" points="12 2 12 4.65 15.02 7.67 15.02 5.02 12 2" fill="#FFFFFF"></polygon><polygon class="cls-3" points="8.98 16.33 8.98 18.98 12 22 12 19.35 8.98 16.33" fill="#FFFFFF"></polygon><polygon class="cls-2" points="12 19.35 12 22 15.02 18.98 15.02 16.33 12 19.35" fill="#FFFFFF"></polygon></g></g></svg>