<svg xmlns:xlink="http://www.w3.org/1999/xlink" width="11" height="11" viewBox="0 0 11 11" fill="none" xmlns="http://www.w3.org/2000/svg"><path d="M4.25813 1.0516C4.28247 0.840874 4.63619 0.780546 4.72712 0.972261C5.15501 1.87104 5.89673 3.19913 6.79809 3.84316C7.69959 4.48527 9.19857 4.75575 10.1872 4.86709C10.398 4.89142 10.4564 5.24501 10.2647 5.33594C9.36588 5.76383 8.03971 6.50569 7.39568 7.40705C6.75165 8.30842 6.4831 9.80753 6.37175 10.7962C6.34742 11.0069 5.99191 11.0652 5.90291 10.8736C5.47501 9.97484 4.73316 8.64867 3.82987 8.0045C2.92851 7.36047 1.42939 7.09192 0.442641 6.98071C0.231918 6.95638 0.171721 6.60073 0.363302 6.51173C1.26208 6.08384 2.59018 5.34212 3.23434 4.43883C3.87645 3.53733 4.14693 2.03835 4.25813 1.0516Z" fill="black"></path></svg>